<svg width="828" height="709" viewBox="0 0 828 709" fill="none" xmlns="http://www.w3.org/2000/svg">
<g style="mix-blend-mode:hard-light">
<path d="M0.000976562 311.248C477.001 89.5348 366.001 -8.84792 828.001 0.622367V709H0.000976562V311.248Z" fill="#88B8E3" fill-opacity="0.5"/>
<path d="M0 231.135C322 33.5251 612 312.395 828 240.831V709H0V231.135Z" fill="#E8C6EE" fill-opacity="0.5"/>
<path d="M0 370.698C296.5 156.876 406 460.187 828 291.78V709H0V370.698Z" fill="#C7B4F0" fill-opacity="0.5"/>
<path d="M0 407.556C491 239.051 486 49.1575 828 1V709H0V407.556Z" fill="#B6C5F9" fill-opacity="0.5"/>
<path d="M0 478.66C332.5 445.283 486 204.798 828 168V709H0V478.66Z" fill="#A98FDA" fill-opacity="0.5"/>
<path d="M0 555.553C335.5 578.136 486 366.031 828 341V709H0V555.553Z" fill="#B2DCE3" fill-opacity="0.5"/>
<path d="M0 618.934C329.001 673.133 484.001 511.332 828 493V709H0V618.934Z" fill="#DFECEE" fill-opacity="0.5"/>
</g>
</svg>
